<?xml version="1.0" standalone="no"?>
<!DOCTYPE svg PUBLIC "-//W3C//DTD SVG 20010904//EN"
 "http://www.w3.org/TR/2001/REC-SVG-20010904/DTD/svg10.dtd">
<svg version="1.0" xmlns="http://www.w3.org/2000/svg"
 width="382.000000pt" height="654.000000pt" viewBox="0 0 382.000000 654.000000"
 preserveAspectRatio="xMidYMid meet">
<metadata>
Created by potrace 1.16, written by Peter Selinger 2001-2019
</metadata>
<g transform="translate(0.000000,654.000000) scale(0.100000,-0.100000)"
fill="#000000" stroke="none">
<path d="M1118 6349 c-22 -11 -61 -50 -94 -94 -44 -58 -68 -80 -108 -99 -125
-59 -140 -94 -177 -405 -16 -135 -33 -271 -38 -301 -5 -30 -12 -100 -16 -155
-8 -125 -29 -315 -55 -493 -37 -250 -98 -763 -130 -1082 -17 -173 -39 -374
-50 -446 -20 -131 -52 -420 -90 -809 -12 -115 -34 -313 -50 -440 -38 -303 -49
-428 -60 -691 -18 -388 -28 -566 -40 -684 -21 -206 1 -280 114 -388 95 -90
143 -113 265 -124 139 -14 254 -6 321 22 165 70 261 170 306 319 15 47 44 115
65 151 77 131 115 254 224 735 20 87 47 228 60 314 44 273 113 708 150 941 19
124 37 232 40 240 4 13 37 15 212 15 115 0 222 3 239 7 l31 7 93 -267 c102
-293 155 -431 253 -657 70 -160 293 -627 352 -735 47 -86 266 -388 306 -422
61 -52 172 -54 265 -6 51 28 111 101 128 159 39 130 14 267 -99 534 -26 61
-80 200 -120 310 -87 240 -120 321 -175 440 -86 185 -125 296 -141 398 -6 39
-18 85 -26 100 -20 40 -169 414 -205 517 -17 47 -50 129 -75 183 -24 55 -55
140 -69 190 -48 172 -136 452 -224 712 -49 143 -98 298 -110 345 -81 319 -274
933 -356 1132 -113 275 -217 370 -434 397 -51 7 -99 20 -128 35 -26 14 -90 45
-143 70 -108 52 -152 57 -211 25z m138 -265 c22 -8 75 -33 119 -55 60 -30 101
-42 164 -50 46 -5 96 -16 110 -24 36 -18 78 -62 106 -110 70 -119 231 -610
395 -1205 18 -63 72 -236 122 -385 107 -323 169 -521 209 -670 17 -60 55 -166
85 -235 31 -69 67 -158 80 -197 13 -40 65 -173 115 -295 56 -138 96 -252 105
-300 18 -98 48 -181 145 -401 43 -98 104 -247 134 -330 83 -225 138 -368 193
-502 27 -66 54 -148 61 -183 12 -63 8 -122 -10 -122 -10 0 -128 157 -201 269
-27 42 -74 126 -103 186 -29 61 -88 182 -130 270 -167 347 -266 589 -416 1020
-106 307 -122 334 -213 360 -40 12 -68 13 -126 6 -41 -5 -122 -12 -180 -15
-127 -7 -114 3 50 39 138 31 193 61 228 125 38 71 28 144 -50 385 -36 110
-102 315 -146 455 -45 140 -119 349 -166 465 l-84 210 -37 -120 c-20 -66 -47
-154 -60 -195 -57 -185 -92 -391 -130 -760 -8 -85 -24 -204 -34 -265 -39 -228
-37 -259 26 -320 20 -19 31 -35 25 -35 -24 0 -81 -62 -102 -112 -12 -29 -33
-118 -46 -198 -12 -80 -61 -386 -108 -680 -47 -294 -103 -616 -126 -715 -23
-99 -53 -229 -66 -289 -33 -144 -82 -279 -134 -368 -23 -40 -54 -111 -69 -158
-20 -65 -35 -93 -64 -123 -63 -63 -105 -77 -234 -77 -61 0 -123 4 -136 9 -14
5 -43 27 -66 49 -39 37 -41 42 -41 98 0 32 5 100 11 149 10 93 23 326 39 720
5 127 18 300 29 386 28 210 75 641 111 1004 16 165 37 338 45 385 9 47 24 177
35 290 40 409 91 843 144 1235 30 220 60 474 66 565 6 90 13 167 15 170 2 3
15 104 29 225 15 121 28 229 31 240 2 11 29 35 59 53 31 18 77 57 103 87 27
30 49 55 49 55 1 0 19 -7 40 -16z m668 -2211 c9 -32 47 -149 83 -261 36 -111
64 -204 62 -206 -2 -2 -57 -15 -121 -28 -134 -29 -125 -34 -108 67 5 33 17
128 25 210 23 243 28 275 35 275 3 0 14 -26 24 -57z"/>
</g>
</svg>
