<svg version="1.1" preserveAspectRatio="none" xmlns="http://www.w3.org/2000/svg" width="500" height="500" viewBox="0 0 500 500"><rect width="100%" height="100%" fill="#433A33" fill-opacity="1"/><svg viewBox="302.6934 294.9942 166.0416 158" width="333" height="316.87239824236815" x="83.5px" y="91.5638px" xmlns="http://www.w3.org/2000/svg" xmlns:xlink="http://www.w3.org/1999/xlink" preserveAspectRatio="none"><defs></defs><style>.companyName {fill:#EFEDE1;fill-opacity:1;}.icon1 {fill:#EFEDE1;fill-opacity:1;}.icon3-str {stroke:#F5BEBE;stroke-opacity:1;}</style><defs></defs><g opacity="1" transform="rotate(0 318.4571 434.9942)">
<svg width="134.5142" height="18" x="318.4571" y="434.9942" version="1.1" preserveAspectRatio="none" viewBox="4.2 -30.28 284.28 38.040000000000006">
  <g transform="matrix(1 0 0 1 0 0)" class="icon1"><path id="id-6izo4zJp12" d="M4.20 0L4.20-28L8.20-28L8.20 0L4.20 0Z M33.96-21.20L37.64-21.20L37.64 7.76L33.80 7.76L33.80-3.20Q32.48-1.52 30.58-0.64Q28.68 0.24 26.40 0.24L26.40 0.24Q23.32 0.24 20.88-1.12Q18.44-2.48 17.06-4.94Q15.68-7.40 15.68-10.60L15.68-10.60Q15.68-13.80 17.06-16.24Q18.44-18.68 20.88-20.04Q23.32-21.40 26.40-21.40L26.40-21.40Q28.76-21.40 30.72-20.50Q32.68-19.60 33.96-17.84L33.96-17.84L33.96-21.20ZM26.72-3.12Q28.72-3.12 30.36-4.06Q32-5 32.92-6.70Q33.84-8.40 33.84-10.60L33.84-10.60Q33.84-12.80 32.90-14.48Q31.96-16.16 30.34-17.10Q28.72-18.04 26.72-18.04L26.72-18.04Q24.68-18.04 23.06-17.12Q21.44-16.20 20.50-14.50Q19.56-12.80 19.56-10.60L19.56-10.60Q19.56-8.40 20.50-6.70Q21.44-5 23.06-4.06Q24.68-3.12 26.72-3.12L26.72-3.12Z M57.76-21.40Q60.84-21.40 63.28-20.04Q65.72-18.68 67.10-16.24Q68.48-13.80 68.48-10.60L68.48-10.60Q68.48-7.40 67.10-4.94Q65.72-2.48 63.28-1.12Q60.84 0.24 57.76 0.24L57.76 0.24Q55.40 0.24 53.44-0.68Q51.48-1.60 50.20-3.36L50.20-3.36L50.20 0L46.52 0L46.52-29.68L50.36-29.68L50.36-18Q51.64-19.68 53.56-20.54Q55.48-21.40 57.76-21.40L57.76-21.40ZM57.44-3.12Q59.48-3.12 61.10-4.06Q62.72-5 63.66-6.70Q64.60-8.40 64.60-10.60L64.60-10.60Q64.60-12.80 63.66-14.50Q62.72-16.20 61.10-17.12Q59.48-18.04 57.44-18.04L57.44-18.04Q55.44-18.04 53.80-17.12Q52.16-16.20 51.24-14.50Q50.32-12.80 50.32-10.60L50.32-10.60Q50.32-8.40 51.24-6.70Q52.16-5 53.80-4.06Q55.44-3.12 57.44-3.12L57.44-3.12Z M82.92-21.40Q87.32-21.40 89.66-19.24Q92.00-17.08 92.00-12.80L92.00-12.80L92.00 0L88.36 0L88.36-2.80Q87.40-1.32 85.62-0.54Q83.84 0.24 81.40 0.24L81.40 0.24Q77.84 0.24 75.70-1.48Q73.56-3.20 73.56-6L73.56-6Q73.56-8.80 75.60-10.50Q77.64-12.20 82.08-12.20L82.08-12.20L88.16-12.20L88.16-12.96Q88.16-15.44 86.72-16.76Q85.28-18.08 82.48-18.08L82.48-18.08Q80.60-18.08 78.80-17.46Q77.00-16.84 75.76-15.80L75.76-15.80L74.16-18.68Q75.80-20 78.08-20.70Q80.36-21.40 82.92-21.40L82.92-21.40ZM82.04-2.72Q84.24-2.72 85.84-3.70Q87.44-4.68 88.16-6.48L88.16-6.48L88.16-9.44L82.24-9.44Q77.36-9.44 77.36-6.16L77.36-6.16Q77.36-4.56 78.60-3.64Q79.84-2.72 82.04-2.72L82.04-2.72Z M100.72 0L100.72-29.68L104.56-29.68L104.56 0L100.72 0Z M147.32 0L144.24-7L129.36-7L126.28 0L122.16 0L134.84-28L138.80-28L151.52 0L147.32 0ZM130.76-10.20L142.84-10.20L136.80-23.92L130.76-10.20Z M168.04-21.40Q172.08-21.40 174.46-19.06Q176.84-16.72 176.84-12.20L176.84-12.20L176.84 0L173.00 0L173.00-11.76Q173.00-14.84 171.52-16.40Q170.04-17.96 167.28-17.96L167.28-17.96Q164.16-17.96 162.36-16.14Q160.56-14.32 160.56-10.92L160.56-10.92L160.56 0L156.72 0L156.72-29.68L160.56-29.68L160.56-18.20Q161.76-19.72 163.70-20.56Q165.64-21.40 168.04-21.40L168.04-21.40Z M212.08-21.40Q216.08-21.40 218.42-19.08Q220.76-16.76 220.76-12.20L220.76-12.20L220.76 0L216.92 0L216.92-11.76Q216.92-14.84 215.50-16.40Q214.08-17.96 211.44-17.96L211.44-17.96Q208.52-17.96 206.80-16.14Q205.08-14.32 205.08-10.92L205.08-10.92L205.08 0L201.24 0L201.24-11.76Q201.24-14.84 199.82-16.40Q198.40-17.96 195.76-17.96L195.76-17.96Q192.84-17.96 191.12-16.14Q189.40-14.32 189.40-10.92L189.40-10.92L189.40 0L185.56 0L185.56-21.20L189.24-21.20L189.24-18.04Q190.40-19.68 192.28-20.54Q194.16-21.40 196.56-21.40L196.56-21.40Q199.04-21.40 200.96-20.40Q202.88-19.40 203.92-17.48L203.92-17.48Q205.12-19.32 207.26-20.36Q209.40-21.40 212.08-21.40L212.08-21.40Z M237.16-21.40Q241.56-21.40 243.90-19.24Q246.24-17.08 246.24-12.80L246.24-12.80L246.24 0L242.60 0L242.60-2.80Q241.64-1.32 239.86-0.54Q238.08 0.24 235.64 0.24L235.64 0.24Q232.08 0.24 229.94-1.48Q227.80-3.20 227.80-6L227.80-6Q227.80-8.80 229.84-10.50Q231.88-12.20 236.32-12.20L236.32-12.20L242.40-12.20L242.40-12.96Q242.40-15.44 240.96-16.76Q239.52-18.08 236.72-18.08L236.72-18.08Q234.84-18.08 233.04-17.46Q231.24-16.84 230.00-15.80L230.00-15.80L228.40-18.68Q230.04-20 232.32-20.70Q234.60-21.40 237.16-21.40L237.16-21.40ZM236.28-2.72Q238.48-2.72 240.08-3.70Q241.68-4.68 242.40-6.48L242.40-6.48L242.40-9.44L236.48-9.44Q231.60-9.44 231.60-6.16L231.60-6.16Q231.60-4.56 232.84-3.64Q234.08-2.72 236.28-2.72L236.28-2.72Z M271.24-29.68L275.08-29.68L275.08 0L271.40 0L271.40-3.36Q270.12-1.60 268.16-0.68Q266.20 0.24 263.84 0.24L263.84 0.24Q260.76 0.24 258.32-1.12Q255.88-2.48 254.50-4.94Q253.12-7.40 253.12-10.60L253.12-10.60Q253.12-13.80 254.50-16.24Q255.88-18.68 258.32-20.04Q260.76-21.40 263.84-21.40L263.84-21.40Q266.12-21.40 268.04-20.54Q269.96-19.68 271.24-18L271.24-18L271.24-29.68ZM264.16-3.12Q266.16-3.12 267.80-4.06Q269.44-5 270.36-6.70Q271.28-8.40 271.28-10.60L271.28-10.60Q271.28-12.80 270.36-14.50Q269.44-16.20 267.80-17.12Q266.16-18.04 264.16-18.04L264.16-18.04Q262.12-18.04 260.50-17.12Q258.88-16.20 257.94-14.50Q257.00-12.80 257.00-10.60L257.00-10.60Q257.00-8.40 257.94-6.70Q258.88-5 260.50-4.06Q262.12-3.12 264.16-3.12L264.16-3.12Z M283.96 0L283.96-21.20L287.80-21.20L287.80 0L283.96 0ZM285.88-25.28Q284.76-25.28 284.02-26Q283.28-26.72 283.28-27.76L283.28-27.76Q283.28-28.80 284.02-29.54Q284.76-30.28 285.88-30.28L285.88-30.28Q287-30.28 287.74-29.58Q288.48-28.88 288.48-27.84L288.48-27.84Q288.48-26.76 287.74-26.02Q287-25.28 285.88-25.28L285.88-25.28Z"/></g>
</svg>
</g><g opacity="1" transform="rotate(0 302.6934 294.9942)">
<svg width="166.0416" height="120" x="302.6934" y="294.9942" version="1.1" preserveAspectRatio="none" viewBox="-4 -28.4 40.68 29.4">
  <g transform="matrix(1 0 0 1 0 0)" class="companyName"><path id="id-D6z1nYkh1" d="M5.32-10.96L5.32-10.96Q5.32-9.96 8.96-9.04L8.96-9.04Q11.04-8.56 14-8.24L14-8.24Q10.28-11.56 6.64-11.56L6.64-11.56Q5.32-11.56 5.32-10.96ZM21.16-0.28L21.16-0.28Q22-0.28 25.32-6.88L25.32-6.88Q20.84-6.80 19.74-6.80Q18.64-6.80 16.64-6.88L16.64-6.88Q19-4.04 20.48-0.84L20.48-0.84Q20.72-0.28 21.16-0.28ZM33.68-27.36L33.68-27.36Q32.36-27.36 30.16-24.54Q27.96-21.72 24.34-16.56Q20.72-11.40 17.60-8L17.60-8Q20.40-7.92 22.50-7.92Q24.60-7.92 25.88-8L25.88-8Q28.72-13.60 31.42-19.84Q34.12-26.08 34.12-27L34.12-27Q34.12-27.36 33.68-27.36ZM28.04-8.08L28.04-8.08L36.36-8.68Q36.68-8.68 36.68-8.36Q36.68-8.04 36.14-7.68Q35.60-7.32 34.04-7.20Q32.48-7.08 27.44-6.96L27.44-6.96Q23.36 1 21.68 1L21.68 1Q20.56 1 20.08 0L20.08 0Q18.32-3.56 15.96-6.24L15.96-6.24L14.80-5.12Q8.88 0.40 1 0.40L1 0.40Q-1 0.40-2.50 0.10Q-4-0.20-4-0.72L-4-0.72Q-4-1.08-3.56-1.08L-3.56-1.08Q-3.28-1.08-2.88-0.92L-2.88-0.92Q-1.68-0.44 1.64-0.44L1.64-0.44Q7.60-0.44 12.92-5.12L12.92-5.12Q14.84-6.92 14.88-6.96L14.88-6.96Q11.12-7.24 8.56-7.96L8.56-7.96Q4-9.24 4-11L4-11Q4-11.60 4.66-12Q5.32-12.40 6.40-12.40L6.40-12.40Q11.16-12.40 15.44-8.12L15.44-8.12Q15.80-8.12 15.96-8.08L15.96-8.08Q19.52-11.92 24.64-18.96L24.64-18.96Q26.44-21.40 28.24-23.68L28.24-23.68Q32-28.40 34.40-28.40L34.40-28.40Q35.96-28.40 35.96-27.04L35.96-27.04Q35.96-26.12 33.38-19.86Q30.80-13.60 28.04-8.08Z"/></g>
</svg>
</g></svg></svg>